<svg width="6" height="6" viewBox="0 0 6 6" fill="none" xmlns="http://www.w3.org/2000/svg">
<g clip-path="url(#clip0_828_404)">
<path fill-rule="evenodd" clip-rule="evenodd" d="M5.68583 0.323836C5.75384 0.391854 5.77689 0.492823 5.74511 0.583615L3.99231 5.59161C3.95839 5.68852 3.86876 5.7549 3.76617 5.75909C3.66359 5.76327 3.56885 5.70441 3.52715 5.61059L2.56466 3.445L0.39907 2.48251C0.30525 2.44082 0.24639 2.34607 0.250576 2.24349C0.254761 2.1409 0.321143 2.05127 0.418048 2.01735L5.42605 0.264553C5.51684 0.232776 5.61781 0.255818 5.68583 0.323836ZM3.05303 3.31075L3.72827 4.83004L4.90994 1.45384L3.05303 3.31075ZM4.55582 1.09972L1.17962 2.28139L2.69891 2.95663L4.55582 1.09972Z" fill="white"/>
</g>
<defs>
<clipPath id="clip0_828_404">
<rect width="6.0096" height="6.0096" fill="white"/>
</clipPath>
</defs>
</svg>
